<?xml version="1.0" standalone="no"?>
<!DOCTYPE svg PUBLIC "-//W3C//DTD SVG 20010904//EN"
 "http://www.w3.org/TR/2001/REC-SVG-20010904/DTD/svg10.dtd">
<svg version="1.0" xmlns="http://www.w3.org/2000/svg"
 width="1821.000000pt" height="1821.000000pt" viewBox="0 0 1821.000000 1821.000000"
 preserveAspectRatio="xMidYMid meet">

<g transform="translate(0.000000,1821.000000) scale(0.100000,-0.100000)"
fill="#000000" stroke="none">
<path d="M9091 17050 c-24 -5 -58 -18 -76 -29 -51 -29 -116 -33 -305 -17 -381
32 -640 30 -909 -10 -58 -9 -330 -72 -604 -140 -273 -68 -506 -124 -516 -124
-11 0 -32 -11 -48 -24 -24 -20 -122 -50 -149 -45 -27 5 -55 -4 -88 -26 -21
-14 -57 -30 -80 -35 -63 -14 -173 -55 -274 -102 -132 -61 -258 -108 -290 -108
-16 0 -37 -8 -46 -19 -10 -11 -35 -20 -65 -23 -56 -6 -119 -35 -391 -184 -107
-58 -226 -121 -265 -139 -38 -18 -78 -41 -87 -51 -27 -31 -46 -44 -62 -44 -8
0 -23 -11 -34 -25 -11 -14 -27 -25 -37 -25 -9 0 -31 -14 -48 -32 -18 -17 -97
-74 -177 -126 -349 -227 -411 -275 -577 -440 -77 -77 -125 -116 -168 -137 -33
-16 -80 -49 -105 -74 -25 -25 -63 -55 -84 -66 -58 -29 -148 -123 -266 -275
-141 -182 -210 -260 -446 -500 -116 -118 -211 -223 -223 -247 -12 -24 -46 -81
-76 -127 -30 -46 -66 -108 -79 -136 -21 -44 -32 -55 -76 -76 -69 -32 -156
-123 -202 -210 -20 -38 -60 -137 -88 -219 -28 -82 -57 -159 -64 -170 -7 -11
-19 -38 -26 -60 -7 -22 -23 -52 -37 -66 -14 -15 -33 -60 -47 -110 -37 -128
-64 -201 -85 -224 -11 -11 -24 -39 -30 -62 -7 -23 -31 -65 -56 -94 -76 -89
-97 -173 -110 -434 -6 -117 -4 -136 14 -186 33 -87 74 -144 128 -176 44 -26
56 -28 143 -27 67 1 125 9 200 27 66 17 132 27 178 27 91 0 242 30 357 71 48
17 89 28 91 26 3 -2 -13 -65 -36 -138 -49 -164 -140 -524 -171 -676 -12 -62
-25 -113 -29 -113 -4 0 -19 17 -32 38 -54 81 -129 151 -200 187 -39 19 -77 35
-86 35 -8 0 -21 8 -28 18 -10 14 -37 18 -156 26 -78 4 -190 8 -247 8 -90 0
-107 -2 -120 -18 -9 -11 -45 -42 -81 -70 -223 -177 -374 -413 -437 -684 -10
-43 -18 -154 -23 -330 -6 -208 -12 -289 -29 -375 -18 -91 -23 -160 -28 -401
-4 -212 -3 -293 6 -298 6 -4 11 -15 11 -25 0 -10 11 -23 23 -28 23 -11 24 -17
30 -150 6 -150 23 -244 61 -346 21 -57 86 -173 121 -217 7 -8 15 -28 19 -43 5
-19 17 -33 40 -42 71 -30 82 -91 39 -213 -58 -166 -114 -212 -368 -301 -66
-23 -175 -69 -242 -102 -100 -49 -137 -74 -200 -133 -97 -91 -140 -164 -188
-314 -20 -64 -68 -216 -107 -337 -66 -204 -72 -226 -72 -310 -1 -107 13 -152
92 -310 130 -261 206 -373 317 -464 95 -79 289 -211 309 -211 10 0 27 -11 40
-25 12 -13 60 -39 107 -56 81 -31 91 -33 284 -39 l200 -7 68 38 c38 22 75 39
82 39 29 0 183 54 247 86 91 46 129 45 233 -6 62 -29 96 -54 138 -99 53 -58
97 -144 97 -192 0 -60 53 -123 112 -133 46 -8 149 -92 172 -140 9 -19 28 -80
41 -135 64 -259 173 -467 330 -631 40 -41 75 -87 79 -101 4 -17 15 -29 31 -33
20 -5 25 -13 25 -37 0 -27 24 -54 173 -202 236 -235 275 -279 282 -321 6 -28
13 -37 40 -46 19 -6 50 -24 71 -41 20 -16 47 -29 61 -29 18 0 25 -7 29 -27 4
-19 24 -41 61 -68 30 -22 98 -75 152 -117 53 -43 122 -92 154 -109 32 -17 93
-62 135 -100 84 -75 120 -96 175 -103 42 -5 38 -3 143 -78 44 -32 85 -68 91
-81 6 -14 32 -35 58 -47 25 -12 84 -57 130 -100 81 -75 86 -78 145 -85 51 -6
63 -11 72 -30 8 -18 34 -32 105 -56 79 -28 100 -39 126 -71 17 -21 37 -38 44
-38 18 0 73 -28 98 -50 11 -10 45 -25 75 -35 60 -19 134 -54 190 -90 25 -16
57 -24 113 -29 56 -4 90 -13 120 -30 23 -13 58 -27 77 -30 19 -3 100 -39 180
-79 80 -41 177 -84 215 -97 39 -12 93 -35 121 -51 28 -16 65 -29 82 -29 19 0
61 -20 118 -56 49 -31 136 -80 194 -109 93 -46 150 -69 330 -131 25 -8 85 -20
133 -25 50 -5 127 -22 175 -39 63 -22 119 -33 202 -39 80 -7 130 -16 164 -31
37 -17 83 -24 190 -32 178 -13 189 -13 435 3 165 10 231 10 345 0 77 -7 204
-16 281 -21 79 -5 160 -15 186 -24 26 -9 57 -16 70 -17 43 -1 140 28 163 50
12 11 32 21 45 21 12 0 36 10 52 22 29 22 39 23 237 24 224 0 236 2 438 69 57
19 153 41 219 50 218 30 385 91 522 191 25 18 57 20 193 10 90 -7 97 -6 140
18 25 14 101 56 170 92 278 148 375 218 458 327 118 157 235 231 450 285 63
16 125 38 140 50 15 12 82 49 150 83 162 81 307 178 412 275 155 143 203 181
256 198 55 18 130 62 180 106 17 15 49 30 71 33 22 4 51 15 64 26 13 10 51 26
84 36 128 37 216 103 258 193 12 26 46 69 75 96 29 27 55 59 58 71 3 13 64 75
135 140 140 127 203 201 267 311 52 89 135 201 241 324 306 353 443 538 521
702 15 31 39 70 53 87 14 18 29 46 32 64 4 22 16 38 36 49 16 9 29 22 29 29 0
7 -9 5 -22 -7 l-23 -19 19 23 c11 12 21 20 24 18 8 -9 62 48 62 65 0 10 5 21
10 24 6 3 10 14 10 23 0 10 8 34 19 55 10 20 22 70 26 111 6 64 10 77 31 91
14 9 32 33 42 53 9 20 29 52 44 69 15 18 30 50 34 70 4 21 16 50 26 64 11 14
23 56 29 95 9 66 11 71 64 121 41 40 58 64 69 104 9 29 16 58 16 65 0 7 11 25
24 41 18 21 26 45 30 98 10 104 13 112 50 134 18 12 46 39 61 61 20 29 47 49
100 75 87 41 145 102 175 181 16 45 20 79 20 192 1 127 3 142 28 202 23 55 32
65 55 68 22 3 40 -9 97 -64 75 -73 109 -123 131 -199 8 -26 23 -55 34 -64 21
-17 40 -69 49 -135 3 -21 14 -49 26 -61 11 -12 20 -28 20 -36 0 -27 51 -124
83 -156 31 -33 67 -42 95 -24 7 4 31 59 53 122 22 63 60 157 84 209 56 123 89
239 120 423 33 193 33 266 2 295 -12 12 -38 50 -57 86 -34 64 -34 64 -23 132
19 110 -3 170 -96 257 -67 63 -92 68 -141 28 -21 -17 -43 -31 -48 -31 -19 0
-61 58 -75 105 -25 84 -44 119 -76 140 -20 13 -42 45 -66 97 -19 42 -35 83
-35 91 0 7 -4 17 -9 23 -5 5 -11 73 -13 151 -3 125 -5 145 -24 170 -20 27 -22
46 -31 344 l-9 316 -32 41 -32 40 0 125 c0 87 5 145 17 189 11 39 17 98 17
158 -1 84 -6 110 -42 220 -47 143 -64 231 -61 302 2 40 -2 55 -23 81 -22 29
-24 35 -13 62 53 130 55 213 5 232 -23 9 -28 17 -33 63 -4 29 -13 60 -22 70
-8 9 -15 25 -15 36 0 11 -4 24 -9 29 -6 6 -11 39 -13 75 -3 57 -5 65 -24 68
-23 3 -25 15 -40 220 l-7 93 -38 20 c-21 10 -45 29 -53 42 -12 17 -36 196 -36
264 0 6 -13 16 -29 21 -22 8 -44 37 -100 135 l-71 124 0 133 0 133 -35 33
c-19 18 -45 34 -57 36 -16 2 -34 25 -67 90 -60 116 -67 190 -27 273 38 76 65
95 138 95 52 0 63 3 89 29 43 44 40 82 -13 135 -40 38 -63 80 -131 237 -14 32
-41 71 -63 90 -79 70 -157 156 -201 222 -25 38 -53 72 -62 75 -20 9 -87 81
-176 192 -37 47 -98 116 -134 154 -105 108 -400 370 -565 500 -83 65 -194 160
-246 210 -71 68 -190 157 -475 355 -209 146 -476 332 -593 415 -608 432 -727
500 -1055 610 -157 53 -198 71 -282 131 -172 121 -380 197 -875 320 -102 25
-277 77 -390 115 -289 97 -490 138 -765 155 -71 5 -116 13 -155 30 -50 21 -76
24 -275 30 -177 6 -231 11 -275 26 -66 23 -88 24 -139 3 -38 -15 -44 -15 -103
5 -78 25 -150 33 -207 21z m7039 -5431 c0 -35 -18 -28 -28 12 -10 40 -10 40 9
23 10 -9 19 -25 19 -35z m151 -555 c2 3 17 -57 32 -132 16 -75 46 -214 68
-309 40 -178 47 -247 28 -302 -14 -38 -29 -40 -29 -3 0 43 -57 390 -95 579
-40 201 -39 189 -22 174 8 -6 16 -9 18 -7z m200 -2294 c9 -29 0 -106 -50 -435
-70 -457 -72 -468 -78 -461 -2 2 5 69 16 148 29 197 59 505 67 677 6 125 9
141 21 125 7 -10 18 -34 24 -54z m-14516 -760 c3 -5 1 -10 -4 -10 -6 0 -11 5
-11 10 0 6 2 10 4 10 3 0 8 -4 11 -10z m14340 -441 c-10 -49 -20 -88 -22 -85
-2 2 4 48 13 102 10 53 20 92 22 85 2 -7 -4 -53 -13 -102z m-12811 -2458 c48
-84 114 -196 147 -249 33 -52 58 -96 56 -98 -1 -2 -34 21 -72 51 -79 61 -145
157 -145 211 0 17 -18 67 -39 110 -33 68 -61 161 -41 137 4 -4 46 -77 94 -162z"/>
<path d="M2462 14454 c-18 -12 -20 -18 -10 -39 12 -27 37 -32 56 -13 33 33 -7
79 -46 52z"/>
<path d="M2242 14398 c-18 -18 -14 -28 11 -28 23 0 47 17 47 32 0 12 -45 9
-58 -4z"/>
<path d="M16840 13961 c-5 -11 -10 -42 -10 -70 0 -50 1 -51 30 -51 29 0 30 1
30 51 0 51 -13 89 -30 89 -5 0 -14 -9 -20 -19z"/>
<path d="M16767 13833 c-4 -3 -7 -32 -7 -64 0 -66 -15 -106 -42 -114 -15 -5
-18 -17 -18 -79 0 -67 2 -74 30 -101 40 -38 40 -83 1 -133 -68 -87 -101 -255
-101 -518 l0 -171 38 -12 c77 -26 89 -9 91 122 1 44 7 90 15 105 7 15 17 54
21 87 3 33 13 70 21 82 19 30 18 68 -3 100 -12 17 -18 51 -20 109 -1 47 -7 93
-13 104 -15 27 -13 30 20 30 l30 0 0 83 c0 45 7 109 15 140 19 73 19 158 1
202 -12 29 -20 35 -44 35 -16 0 -32 -3 -35 -7z"/>
<path d="M18096 7168 c-37 -52 -5 -101 67 -102 l42 -1 -1 44 c-1 33 -7 49 -24
63 -30 24 -66 23 -84 -4z"/>
<path d="M17830 6748 c-13 -8 -14 -22 -6 -87 11 -92 4 -138 -29 -182 -14 -19
-32 -48 -41 -66 -16 -29 -16 -34 -1 -56 9 -14 46 -40 84 -58 91 -46 105 -71
107 -196 l1 -95 37 -22 c29 -16 41 -19 55 -10 23 14 46 93 33 109 -28 34 -50
136 -56 263 -5 98 -11 135 -21 139 -9 3 -13 24 -13 64 0 33 -7 76 -15 96 -8
19 -15 46 -15 59 0 43 -79 71 -120 42z"/>
<path d="M15920 3906 c-18 -23 -8 -61 18 -64 26 -4 37 17 28 53 -7 28 -27 33
-46 11z"/>
<path d="M4885 2100 c-14 -23 -25 -51 -23 -63 3 -19 9 -22 47 -20 56 3 65 12
65 70 1 47 0 48 -31 51 -28 3 -35 -2 -58 -38z"/>
</g>
</svg>
