<?xml version="1.0" standalone="no"?>
<!DOCTYPE svg PUBLIC "-//W3C//DTD SVG 20010904//EN"
 "http://www.w3.org/TR/2001/REC-SVG-20010904/DTD/svg10.dtd">
<svg version="1.0" xmlns="http://www.w3.org/2000/svg"
 width="2760.000000pt" height="2279.000000pt" viewBox="0 0 2760.000000 2279.000000"
 preserveAspectRatio="xMidYMid meet">

<g transform="translate(0.000000,2279.000000) scale(0.100000,-0.100000)"
fill="#000000" stroke="none">
<path d="M22165 22766 c-243 -40 -438 -122 -657 -276 -136 -96 -253 -215 -406
-415 -141 -185 -290 -494 -342 -715 -37 -157 -45 -225 -44 -415 0 -209 13
-312 65 -511 67 -258 220 -618 384 -904 21 -36 49 -85 63 -110 59 -104 294
-483 313 -504 5 -5 9 94 9 221 0 248 9 364 41 538 104 560 373 1036 1049 1858
224 272 309 397 371 545 26 63 33 94 37 168 5 111 -7 144 -95 255 -97 121
-235 214 -379 254 -79 22 -304 28 -409 11z"/>
<path d="M11523 22450 c-34 -4 -69 -12 -77 -19 -23 -20 -49 -110 -49 -171 2
-131 71 -240 189 -296 49 -23 72 -28 134 -27 78 1 142 18 181 50 49 39 109
104 109 117 0 8 5 16 10 18 16 5 24 46 26 137 2 72 -1 91 -23 137 l-25 54
-117 1 c-64 0 -156 2 -206 3 -49 2 -118 0 -152 -4z"/>
<path d="M14600 22083 c19 -10 38 -22 41 -27 4 -5 11 -6 17 -2 6 3 13 2 17 -4
3 -5 30 -10 58 -10 38 1 48 3 35 10 -17 11 -110 35 -168 44 l-35 6 35 -17z"/>
<path d="M13460 22033 c-14 -7 -32 -13 -41 -13 -9 0 -44 -26 -77 -57 -78 -75
-107 -144 -106 -253 1 -64 5 -83 31 -131 39 -71 59 -95 108 -127 62 -41 103
-52 189 -53 68 -1 87 3 142 31 70 34 125 90 157 160 32 69 30 209 -3 270 -28
52 -37 65 -64 88 -11 9 -33 29 -49 45 -17 15 -33 27 -36 28 -30 3 -56 11 -65
18 -16 14 -157 9 -186 -6z"/>
<path d="M10505 21943 c-82 -18 -130 -38 -174 -73 -28 -22 -51 -45 -51 -51 0
-5 -8 -19 -19 -30 -42 -45 -72 -227 -43 -261 6 -7 10 -15 10 -18 -6 -45 89
-155 161 -188 62 -28 73 -30 146 -32 86 -3 161 25 222 84 65 61 75 79 98 171
16 66 16 75 0 135 -21 82 -39 114 -93 167 -37 37 -122 92 -122 79 0 -2 -21 2
-47 10 -47 14 -54 15 -88 7z"/>
<path d="M15296 21496 c-10 -9 -23 -13 -27 -10 -5 3 -9 0 -9 -6 0 -6 -4 -8
-10 -5 -5 3 -10 1 -10 -5 0 -6 -4 -8 -10 -5 -5 3 -10 1 -10 -5 0 -6 -4 -8 -10
-5 -5 3 -10 -1 -10 -9 0 -9 -6 -16 -12 -16 -7 0 -22 -14 -33 -30 -11 -16 -23
-30 -27 -30 -5 0 -8 -5 -8 -12 0 -6 -7 -19 -15 -28 -9 -9 -22 -47 -29 -83 -24
-115 17 -229 115 -319 54 -50 159 -83 236 -74 143 16 273 137 290 270 12 96 7
131 -27 197 -38 76 -95 133 -157 160 -64 28 -209 37 -237 15z"/>
<path d="M12275 21386 c-62 -19 -97 -41 -136 -83 -41 -44 -68 -86 -76 -116
-30 -125 -20 -207 34 -286 21 -31 41 -57 45 -59 3 -2 18 -14 32 -27 86 -80
270 -90 371 -22 49 33 105 97 129 149 30 63 39 196 15 224 -5 7 -12 22 -14 34
-5 25 -49 87 -78 110 -10 8 -32 26 -48 38 -57 47 -190 65 -274 38z"/>
<path d="M9264 21282 c-118 -32 -223 -146 -239 -259 -4 -21 -8 -43 -10 -50 -2
-6 3 -32 10 -57 8 -26 15 -50 16 -54 1 -4 5 -17 10 -30 5 -13 9 -27 9 -33 0
-31 150 -147 183 -141 4 1 7 -2 7 -6 0 -8 10 -10 85 -13 61 -3 135 10 135 23
0 5 5 6 10 3 6 -3 10 -2 10 3 0 6 10 13 23 16 30 8 76 52 115 110 17 27 32 52
33 55 0 3 3 17 6 31 2 14 5 55 5 93 0 72 -31 171 -58 181 -8 3 -14 11 -14 18
0 8 -10 20 -21 28 -12 8 -27 20 -33 25 -66 61 -180 84 -282 57z"/>
<path d="M17180 20969 c-81 -16 -147 -56 -200 -122 -50 -62 -64 -100 -73 -206
-5 -49 17 -133 39 -151 7 -7 14 -18 14 -25 0 -16 89 -99 126 -117 80 -40 199
-48 256 -17 12 7 26 12 31 11 4 -1 7 3 7 9 0 5 4 8 9 5 9 -6 111 85 111 99 0
4 8 19 18 33 20 29 53 147 47 166 -3 6 -6 30 -9 53 -5 47 -15 68 -58 128 -29
39 -98 103 -98 90 0 -4 -7 0 -15 8 -13 13 -58 26 -140 41 -11 3 -40 0 -65 -5z"/>
<path d="M14116 20849 c-42 -10 -96 -39 -96 -51 0 -4 -7 -8 -15 -8 -8 0 -15
-3 -15 -7 0 -5 -15 -24 -33 -43 -42 -46 -64 -94 -72 -164 -6 -49 -11 -59 -32
-67 -14 -5 -28 -7 -32 -4 -4 2 -43 -4 -87 -14 -43 -10 -101 -22 -129 -26 -27
-4 -54 -10 -60 -15 -9 -7 -30 -11 -115 -26 -29 -5 -183 -51 -218 -65 -13 -5
-40 -12 -60 -15 -20 -3 -49 -12 -64 -20 -15 -8 -32 -14 -38 -14 -13 0 -127
-68 -181 -108 -73 -54 -279 -293 -279 -324 0 -3 -6 -13 -12 -20 -22 -23 -78
-108 -78 -117 0 -5 -4 -11 -8 -13 -9 -3 -72 -96 -72 -105 0 -3 -6 -11 -13 -17
-8 -6 -43 -49 -79 -96 -123 -159 -188 -211 -188 -150 0 11 -4 20 -9 20 -5 0
-14 12 -20 28 -14 33 -74 92 -121 118 -19 11 -61 26 -92 34 -101 23 -224 -15
-303 -95 -69 -70 -102 -183 -83 -287 7 -38 16 -68 21 -68 4 0 5 -4 2 -10 -3
-5 -1 -10 5 -10 6 0 8 -4 5 -10 -3 -5 -1 -10 6 -10 7 0 10 -3 6 -6 -8 -9 73
-94 90 -94 7 0 13 -3 13 -7 0 -10 89 -49 101 -45 17 4 9 -28 -13 -54 -13 -14
-71 -75 -129 -135 -58 -60 -104 -110 -103 -112 1 -1 -139 -143 -312 -316 -173
-173 -314 -312 -314 -309 0 2 -52 -45 -116 -106 -106 -101 -181 -172 -332
-311 -30 -27 -67 -61 -81 -75 -15 -14 -65 -58 -111 -99 -47 -41 -101 -89 -120
-107 -64 -59 -74 -68 -195 -170 -66 -56 -129 -110 -140 -120 -11 -11 -38 -32
-60 -49 -22 -16 -56 -44 -75 -62 -19 -18 -55 -48 -80 -68 -25 -20 -54 -44 -65
-53 -11 -10 -42 -35 -70 -57 -27 -22 -79 -64 -115 -93 -36 -30 -76 -62 -90
-73 -14 -11 -60 -47 -102 -80 -75 -59 -78 -60 -115 -50 -61 17 -173 15 -215
-3 -136 -58 -218 -175 -218 -311 0 -49 -3 -56 -27 -72 -16 -9 -43 -30 -60 -47
-18 -16 -33 -26 -33 -22 0 5 -9 -2 -20 -15 -10 -13 -19 -20 -20 -16 0 4 -6 3
-12 -3 -46 -38 -62 -50 -69 -50 -4 0 -19 -11 -33 -25 -14 -14 -29 -25 -34 -25
-5 0 -19 -11 -32 -25 -12 -13 -27 -22 -32 -19 -4 3 -11 -2 -14 -10 -3 -9 -10
-16 -15 -16 -9 0 -86 -51 -138 -92 -31 -24 -58 -23 -73 3 -15 24 -110 88 -142
96 -87 20 -114 22 -172 12 -34 -6 -71 -19 -83 -30 -11 -10 -25 -19 -31 -19
-20 0 -79 -66 -109 -124 -17 -32 -34 -81 -37 -110 -4 -28 -8 -53 -10 -55 -11
-12 -501 81 -919 174 -181 40 -346 76 -366 79 -22 4 -36 12 -36 21 0 8 4 15 8
15 5 0 25 16 45 35 19 19 33 35 29 35 -4 0 2 8 13 18 12 10 29 49 42 94 19 72
20 87 5 158 -1 3 -9 22 -18 44 -9 21 -17 41 -17 45 -2 16 -80 91 -125 118 -74
44 -140 58 -212 42 -32 -7 -62 -16 -67 -21 -6 -4 -17 -8 -26 -8 -14 0 -50 -27
-109 -83 -20 -19 -49 -70 -57 -102 -6 -20 -20 -110 -19 -120 6 -68 22 -122 46
-159 34 -55 52 -52 -176 -31 -753 68 -1373 -93 -2035 -530 -791 -523 -1375
-1240 -1700 -2090 -83 -219 -165 -504 -205 -715 -31 -167 -22 -149 -115 -206
-47 -29 -89 -56 -95 -61 -5 -4 -32 -25 -60 -45 -71 -52 -215 -202 -261 -273
-21 -33 -45 -66 -51 -73 -7 -7 -13 -19 -13 -27 0 -7 -7 -16 -16 -19 -8 -3 -13
-10 -10 -15 4 -5 2 -11 -2 -13 -7 -3 -54 -83 -86 -145 -6 -13 -15 -23 -19 -23
-5 0 -5 -4 -2 -10 3 -5 2 -10 -3 -10 -5 0 -17 -20 -28 -45 -10 -25 -21 -45
-25 -45 -4 0 -12 -15 -20 -32 -7 -18 -16 -35 -20 -38 -3 -3 -15 -23 -27 -45
-11 -22 -31 -61 -43 -86 -13 -25 -30 -61 -38 -80 -8 -19 -21 -40 -28 -47 -7
-8 -11 -18 -8 -23 4 -5 2 -9 -3 -9 -6 0 -25 -35 -42 -77 -18 -43 -39 -87 -47
-100 -8 -12 -16 -28 -17 -35 -4 -18 -15 -45 -41 -103 -44 -98 -57 -130 -61
-149 -2 -11 -8 -24 -14 -30 -5 -5 -10 -17 -10 -25 0 -9 -7 -29 -15 -45 -8 -15
-17 -38 -19 -51 -2 -12 -13 -42 -24 -66 -23 -51 -50 -134 -55 -166 -2 -12 -6
-26 -10 -29 -4 -4 -7 -17 -7 -29 0 -11 -4 -25 -9 -31 -5 -5 -17 -49 -26 -99
-9 -49 -21 -96 -27 -103 -6 -7 -8 -15 -6 -18 3 -3 2 -22 -3 -42 -5 -20 -12
-53 -15 -72 -3 -19 -10 -52 -15 -74 -6 -21 -15 -78 -20 -125 -6 -47 -13 -113
-17 -146 -4 -33 -6 -157 -5 -275 1 -173 6 -248 26 -380 14 -91 28 -175 31
-187 10 -38 17 -67 22 -93 3 -14 18 -64 35 -111 16 -48 29 -94 29 -103 0 -9 4
-16 10 -16 5 0 7 -7 4 -15 -4 -8 -1 -15 7 -15 7 0 9 -3 6 -6 -3 -4 0 -16 8
-28 8 -11 15 -27 15 -36 0 -8 18 -50 40 -93 22 -42 40 -84 40 -92 0 -8 5 -15
12 -15 6 0 9 -3 5 -6 -3 -4 9 -30 28 -59 18 -29 31 -56 28 -59 -4 -3 -1 -6 5
-6 6 0 14 -10 18 -22 15 -49 207 -327 299 -432 6 -6 32 -38 60 -71 56 -68 64
-76 231 -247 123 -126 254 -248 334 -313 64 -51 128 -105 171 -142 20 -18 39
-33 43 -33 4 0 17 -9 29 -21 21 -20 105 -83 139 -104 9 -5 46 -31 83 -57 36
-27 72 -48 80 -48 8 0 15 -4 15 -10 0 -8 191 -109 210 -112 3 0 25 -9 50 -20
25 -11 59 -25 75 -32 17 -7 93 -27 170 -45 77 -18 154 -37 172 -42 80 -25 576
-34 758 -14 28 3 160 19 295 35 135 16 292 34 350 40 139 15 172 18 255 30 39
5 111 12 160 15 50 2 99 7 111 9 11 2 54 7 95 10 41 4 88 9 104 11 17 2 82 7
145 10 63 4 131 8 150 9 291 27 1246 28 1565 1 28 -2 86 -7 130 -10 44 -3 107
-8 140 -11 33 -4 67 -6 75 -6 20 1 234 -25 524 -64 15 -2 35 -5 45 -8 9 -3 41
-8 71 -11 30 -4 84 -12 120 -20 36 -7 99 -19 140 -25 41 -7 90 -21 108 -31 45
-26 166 -52 206 -45 19 4 50 0 74 -8 23 -8 42 -13 42 -9 0 3 6 0 13 -6 8 -6
16 -8 19 -6 3 3 18 1 34 -6 16 -6 40 -12 54 -14 14 -2 95 -25 180 -50 85 -26
164 -49 175 -51 12 -2 48 -13 80 -24 33 -12 65 -22 70 -23 6 -1 16 -6 23 -10
6 -5 12 -6 12 -2 0 3 13 -1 29 -9 15 -8 39 -17 52 -20 19 -4 123 -40 209 -73
8 -3 20 -7 25 -9 6 -1 24 -8 40 -15 17 -7 32 -13 35 -14 11 -4 47 -19 86 -36
23 -10 63 -26 90 -35 26 -9 54 -22 61 -30 8 -8 21 -14 30 -14 8 0 46 -16 84
-35 38 -19 72 -34 74 -34 15 1 75 -26 75 -34 0 -4 5 -5 10 -2 6 3 10 1 10 -5
0 -6 5 -8 10 -5 6 3 10 1 10 -6 0 -7 3 -10 6 -7 5 6 245 -113 270 -133 6 -5
14 -6 17 -2 4 3 7 1 7 -6 0 -7 4 -9 10 -6 5 3 10 1 10 -6 0 -7 3 -9 7 -6 3 4
12 -1 20 -11 9 -10 12 -11 7 -2 -6 13 -5 13 12 -1 10 -8 53 -32 94 -53 41 -21
77 -41 80 -45 3 -3 23 -15 45 -27 72 -38 118 -65 150 -90 18 -13 36 -24 40
-24 4 0 23 -11 42 -26 18 -14 33 -21 33 -17 0 4 5 0 11 -10 6 -9 14 -15 20
-12 5 4 9 -1 9 -9 0 -12 -8 -14 -36 -10 -20 2 -41 7 -46 10 -20 12 -140 3
-176 -13 -20 -9 -40 -15 -44 -15 -5 1 -8 -3 -8 -8 0 -6 -6 -10 -12 -10 -7 0
-28 -14 -47 -30 -134 -118 -147 -339 -27 -461 60 -61 98 -84 175 -104 68 -17
104 -14 195 18 42 15 74 35 108 70 26 27 48 53 48 58 0 6 7 17 15 25 8 9 15
26 15 39 0 13 5 27 10 30 13 8 5 155 -10 195 -1 3 -2 8 -1 13 0 4 -4 7 -9 7
-6 0 -10 6 -10 14 0 8 -6 21 -13 28 -26 26 -59 79 -54 85 4 3 25 -6 49 -20 24
-14 47 -25 51 -26 4 0 14 -6 21 -13 8 -7 24 -20 36 -28 12 -8 44 -31 70 -50
27 -19 103 -73 170 -120 67 -47 132 -94 145 -105 13 -11 40 -31 60 -45 20 -14
44 -32 53 -41 9 -8 58 -47 107 -84 50 -38 92 -72 95 -75 5 -6 58 -48 103 -83
15 -12 45 -37 65 -55 20 -18 50 -43 65 -55 15 -12 45 -38 65 -57 21 -19 64
-57 97 -85 32 -27 75 -66 96 -85 21 -19 69 -64 108 -100 162 -148 591 -584
591 -600 0 -9 -9 -25 -20 -35 -69 -63 -108 -200 -83 -296 25 -97 104 -209 148
-209 8 0 15 -4 15 -10 0 -5 9 -10 20 -10 11 0 20 -4 20 -9 0 -11 119 -27 165
-23 32 3 150 59 167 79 6 7 16 13 23 13 11 0 104 -102 191 -209 31 -38 97
-114 122 -139 12 -12 22 -26 22 -30 0 -4 13 -20 28 -37 48 -51 172 -209 172
-219 0 -4 -10 -5 -22 -1 -13 3 -57 9 -98 12 -71 4 -78 3 -136 -29 -34 -18 -75
-45 -92 -59 -41 -35 -92 -120 -92 -152 0 -14 -4 -28 -9 -31 -16 -10 9 -174 30
-202 5 -6 6 -13 3 -16 -2 -3 18 -27 45 -54 65 -63 81 -76 81 -68 0 4 8 0 18
-8 19 -17 108 -38 155 -38 41 1 113 21 152 42 40 22 106 84 98 92 -3 3 -1 6 4
6 23 0 58 94 67 179 6 47 13 61 24 45 34 -50 96 -124 104 -124 5 0 6 -4 3 -10
-3 -5 -3 -10 2 -10 4 0 19 -17 33 -38 14 -20 62 -85 108 -145 45 -59 82 -111
82 -117 0 -5 6 -13 13 -17 7 -4 32 -38 55 -75 24 -37 52 -77 63 -89 10 -12 19
-25 19 -29 0 -3 8 -15 18 -26 9 -10 38 -51 64 -89 60 -88 114 -166 131 -185
119 -147 277 -310 359 -373 49 -38 144 -97 154 -97 6 0 17 -7 24 -15 7 -9 15
-13 18 -10 3 2 26 -6 51 -19 129 -66 285 -87 651 -90 151 -1 316 1 365 5 50 4
131 10 180 12 122 7 310 26 365 37 25 5 93 16 152 25 59 8 113 17 120 20 17 6
194 44 233 50 17 3 39 9 50 14 11 5 49 16 85 26 36 9 85 24 110 33 25 9 48 17
53 18 4 1 8 2 10 3 1 2 13 4 26 7 13 2 45 14 70 26 25 11 54 23 64 24 9 2 51
20 91 39 41 19 79 35 85 35 6 0 11 5 11 10 0 6 6 10 13 10 24 0 258 125 265
142 2 5 8 6 13 2 5 -3 9 0 9 5 0 6 6 11 13 11 16 0 217 135 235 158 6 9 12 12
12 7 0 -4 8 1 18 11 9 11 29 27 45 37 15 10 41 30 58 45 222 196 410 389 460
471 10 17 22 31 27 31 4 0 32 34 62 75 30 42 64 78 75 80 11 2 133 6 270 9
614 12 1245 109 1827 281 369 108 718 236 986 361 41 19 76 34 79 34 13 0 422
210 560 288 265 150 468 281 827 536 105 75 437 343 556 450 195 174 526 501
695 686 540 591 1048 1337 1426 2092 940 1876 1240 4007 843 5993 -303 1523
-972 2883 -2024 4115 -157 185 -511 539 -660 661 -298 246 -584 431 -925 599
-602 298 -1243 473 -1990 545 -93 9 -179 20 -190 24 -18 8 -160 123 -269 217
l-40 35 -22 -23 c-12 -13 -19 -26 -17 -30 2 -5 0 -8 -4 -8 -21 0 -51 -80 -56
-150 l-2 -25 -340 -6 c-369 -7 -511 -16 -900 -54 -276 -28 -658 -82 -958 -135
-93 -17 -172 -28 -176 -26 -4 3 -3 28 3 55 8 39 6 67 -7 128 -9 43 -22 80 -27
81 -6 2 -10 9 -10 16 0 20 -92 110 -130 128 -19 9 -51 19 -70 24 -39 8 -154 7
-185 -3 -45 -14 -134 -84 -163 -130 -32 -50 -62 -145 -62 -198 0 -48 27 -127
60 -176 l29 -44 -57 -14 c-31 -7 -191 -46 -356 -86 l-298 -74 -44 22 c-24 11
-44 25 -44 30 0 4 -4 5 -10 2 -5 -3 -10 -2 -10 3 0 5 -24 14 -53 21 -61 13
-161 6 -194 -15 -13 -8 -23 -12 -23 -8 0 6 -75 -50 -101 -76 -9 -9 -24 -30
-33 -46 -51 -90 -41 -84 -200 -130 -82 -24 -152 -41 -156 -39 -8 5 -7 30 4 95
37 220 46 418 34 704 l-3 60 49 12 c26 7 58 22 70 33 12 12 27 21 32 21 6 0
23 14 37 30 15 17 24 30 20 30 -4 0 1 6 10 13 41 30 69 165 52 251 -9 42 -37
106 -47 106 -4 0 -8 6 -8 13 0 22 -72 83 -132 112 -48 22 -70 27 -130 26 -40
-1 -80 -3 -89 -6 -12 -4 -20 1 -25 17 -4 13 -18 48 -31 78 -14 30 -32 71 -40
90 -46 112 -142 290 -155 290 -5 0 -6 5 -3 10 3 6 1 10 -4 10 -6 0 -11 6 -11
14 0 7 -16 33 -35 57 -19 24 -35 49 -35 54 0 6 14 25 30 44 17 19 33 45 36 58
4 12 9 23 13 23 4 0 8 11 9 26 1 14 6 33 11 42 11 21 4 133 -9 150 -2 1 -3 5
-4 10 -8 28 -46 92 -71 117 -94 95 -171 120 -312 100 -29 -4 -53 -12 -53 -16
0 -5 -6 -9 -14 -9 -8 0 -37 -18 -65 -40 -28 -22 -54 -40 -59 -40 -5 0 -20 8
-33 19 -27 21 -221 122 -271 141 -18 7 -49 19 -68 27 -19 8 -43 16 -54 18 -10
2 -24 9 -32 15 -7 7 -18 9 -24 5 -5 -3 -10 -2 -10 2 0 5 -8 9 -17 10 -10 1
-56 13 -103 27 -47 13 -105 27 -130 31 -25 3 -63 10 -85 15 -42 9 -194 26
-335 38 -60 5 -84 11 -82 20 1 7 -3 22 -9 33 -6 12 -13 33 -15 47 -3 15 -11
30 -17 34 -7 4 -12 12 -12 17 0 15 -125 129 -125 114 0 -4 -4 -3 -8 3 -19 28
-156 42 -236 23z"/>
<path d="M11141 20749 c-81 -12 -118 -30 -174 -82 -38 -36 -98 -112 -89 -112
2 0 -2 -13 -9 -30 -17 -41 -17 -141 1 -195 25 -78 55 -116 160 -197 9 -7 31
-15 50 -18 18 -3 37 -8 41 -11 16 -9 141 -6 152 5 6 6 20 11 30 11 10 0 33 10
50 21 41 28 117 110 117 126 0 7 4 13 8 13 8 0 31 74 39 128 6 40 -15 131 -34
150 -7 7 -13 19 -13 26 0 20 -108 126 -130 126 -5 0 -10 4 -10 8 0 7 -63 28
-110 37 -8 2 -44 -1 -79 -6z"/>
<path d="M8120 20646 c-3 -2 -21 -8 -40 -11 -75 -13 -185 -101 -215 -172 -24
-55 -30 -90 -29 -165 2 -121 68 -218 189 -277 53 -26 74 -31 136 -31 65 0 82
4 142 35 79 41 117 79 154 154 34 69 37 168 9 255 -30 90 -131 182 -222 201
-50 11 -119 17 -124 11z"/>
<path d="M22770 20384 c-78 -15 -195 -59 -264 -98 -262 -150 -426 -364 -483
-629 -22 -102 -24 -388 -4 -522 12 -85 61 -336 76 -398 10 -38 18 -27 49 69
74 225 215 428 411 592 105 88 312 229 503 343 204 122 293 206 306 290 13 82
-56 211 -147 273 -86 59 -154 78 -297 81 -69 2 -136 1 -150 -1z"/>
<path d="M18819 20317 c-9 -7 -28 -38 -43 -70 -34 -70 -43 -178 -20 -232 8
-19 12 -35 10 -35 -10 0 21 -49 57 -93 24 -28 63 -57 105 -78 60 -31 73 -34
148 -32 70 1 91 5 136 30 69 37 141 110 156 159 11 36 10 40 -11 57 -12 9 -32
20 -44 23 -13 3 -23 10 -23 15 0 5 -4 9 -10 9 -5 0 -19 8 -30 18 -11 9 -24 17
-28 17 -6 1 -46 24 -107 62 -11 7 -38 22 -59 34 -22 12 -45 26 -51 33 -6 6
-29 20 -51 31 -21 11 -41 23 -44 27 -3 4 -21 14 -40 22 -27 11 -39 12 -51 3z"/>
<path d="M9920 20097 c-25 -6 -47 -14 -50 -17 -3 -4 -23 -16 -45 -28 -22 -11
-55 -37 -74 -59 -39 -43 -66 -83 -58 -83 3 0 -1 -16 -9 -35 -30 -74 -13 -199
38 -277 39 -58 68 -83 145 -122 45 -23 61 -25 141 -23 64 2 97 8 116 20 14 10
26 15 26 12 0 -22 143 128 146 153 0 4 4 14 7 22 20 48 25 130 12 181 -21 84
-27 99 -37 99 -5 0 -6 5 -3 10 3 6 -1 13 -9 16 -9 3 -13 10 -10 15 3 5 -2 9
-11 9 -9 0 -14 4 -11 8 8 14 -114 86 -168 99 -60 14 -85 14 -146 0z"/>
<path d="M6925 19993 c-126 -13 -251 -132 -273 -260 -11 -64 2 -193 19 -193 5
0 9 -8 9 -18 0 -26 88 -117 140 -145 97 -52 208 -50 317 6 34 18 127 107 119
114 -3 3 0 15 7 27 7 11 19 48 28 81 13 52 13 69 2 123 -13 66 -56 150 -79
159 -8 3 -14 10 -14 17 0 6 -15 20 -33 31 -80 48 -157 67 -242 58z"/>
<path d="M17782 19771 c-92 -31 -183 -121 -207 -204 -19 -65 -27 -167 -15
-182 5 -7 11 -20 13 -31 4 -20 27 -72 39 -89 25 -35 62 -70 85 -83 65 -35 80
-42 99 -45 10 -1 24 -5 29 -8 21 -13 123 -2 175 19 70 28 140 91 167 152 4 8
10 18 15 21 15 10 22 60 22 144 0 86 -23 146 -79 213 -73 87 -233 130 -343 93z"/>
<path d="M8728 19444 c-32 -7 -70 -21 -85 -31 -35 -21 -103 -90 -103 -103 0
-6 -5 -10 -11 -10 -5 0 -7 -4 -4 -10 3 -5 3 -10 -2 -10 -27 0 -57 -182 -38
-227 5 -10 10 -26 12 -36 1 -10 12 -27 23 -39 11 -12 20 -27 20 -32 1 -21 62
-78 108 -100 80 -40 121 -49 188 -43 174 17 312 168 299 327 -7 83 -11 106
-21 121 -5 8 -9 17 -9 21 0 3 -13 25 -30 47 -43 58 -128 113 -200 128 -72 15
-75 15 -147 -3z"/>
<path d="M19670 19240 c-126 -17 -233 -114 -266 -240 -17 -67 -15 -159 4 -196
5 -10 16 -32 23 -49 21 -45 104 -122 146 -135 21 -7 44 -17 51 -23 6 -5 47 -9
90 -8 65 1 87 6 139 32 73 37 135 100 163 164 11 25 18 45 16 45 -2 0 0 18 5
41 6 27 6 62 -2 102 -31 176 -190 291 -369 267z"/>
<path d="M6087 19003 c-9 -21 -19 -48 -22 -60 -4 -13 -11 -23 -16 -23 -5 0 -9
-5 -9 -11 0 -10 -16 -51 -43 -106 -6 -13 -8 -25 -5 -29 10 -9 79 70 85 99 3
15 9 27 13 27 9 0 25 128 18 136 -3 2 -12 -13 -21 -33z"/>
<path d="M10575 18909 c-22 -5 -58 -18 -80 -28 -45 -21 -145 -125 -145 -150 0
-10 -5 -22 -11 -28 -15 -15 -24 -179 -11 -206 5 -12 15 -37 22 -54 7 -18 17
-33 23 -33 6 0 7 -3 4 -6 -8 -8 83 -94 99 -94 4 0 15 -7 25 -16 19 -17 44 -23
141 -31 61 -5 73 -2 135 28 79 38 146 102 163 156 7 21 17 43 22 50 9 11 13
116 6 158 -2 11 -11 34 -21 52 -9 18 -17 38 -17 45 0 18 -115 126 -146 138
-61 24 -155 32 -209 19z"/>
<path d="M7535 18797 c-154 -39 -268 -211 -238 -359 23 -110 25 -117 84 -179
39 -40 99 -84 99 -72 0 4 4 2 8 -5 11 -17 44 -24 129 -28 65 -2 77 1 150 36
43 21 77 41 75 45 -1 3 9 16 22 28 14 12 37 47 53 77 25 49 28 65 27 145 0 84
-3 94 -34 144 -47 76 -87 115 -149 146 -64 32 -152 40 -226 22z"/>
<path d="M9405 18264 c-88 -21 -123 -39 -172 -87 -29 -29 -53 -58 -53 -64 0
-7 -5 -13 -12 -13 -6 0 -9 -3 -5 -6 3 -4 -1 -20 -9 -36 -20 -39 -25 -63 -26
-123 -1 -49 22 -134 42 -158 94 -114 126 -137 221 -156 59 -12 157 -7 173 9 6
6 17 10 25 10 44 0 161 125 176 190 2 8 8 29 13 45 12 43 7 134 -11 176 -30
71 -126 179 -160 179 -6 0 -18 7 -28 16 -17 16 -134 28 -174 18z"/>
<path d="M6340 18145 c-30 -9 -71 -27 -91 -41 -44 -30 -90 -80 -82 -88 4 -3 1
-6 -5 -6 -7 0 -12 -5 -12 -12 0 -6 -7 -19 -15 -28 -12 -13 -18 -42 -28 -131
-5 -44 17 -125 50 -179 76 -129 236 -185 383 -137 66 22 147 91 183 157 111
204 -32 458 -267 475 -38 3 -82 -1 -116 -10z"/>
<path d="M3690 17920 c-318 -33 -603 -116 -882 -256 -714 -357 -1224 -1029
-1367 -1799 -58 -314 -53 -676 15 -982 9 -40 19 -73 23 -73 3 0 35 89 71 197
440 1333 846 1871 1760 2328 287 144 620 280 1055 430 l210 73 -42 11 c-74 20
-226 50 -313 61 -115 15 -425 21 -530 10z"/>
<path d="M8205 17613 c-75 -17 -97 -28 -139 -64 -44 -39 -114 -129 -100 -129
3 0 1 -6 -5 -14 -19 -22 -25 -135 -10 -186 7 -25 13 -50 15 -56 6 -32 16 -53
24 -51 4 1 8 -2 8 -6 1 -11 73 -82 84 -82 5 0 12 -6 17 -13 4 -7 16 -14 27
-16 10 -2 32 -9 48 -16 35 -13 145 -22 161 -12 5 3 15 7 21 8 31 5 103 45 135
75 38 36 75 89 71 102 -1 4 2 7 7 7 14 0 24 59 25 145 0 73 -3 86 -33 139 -73
127 -225 199 -356 169z"/>
<path d="M5501 17338 c-4 -13 -14 -45 -20 -73 -7 -27 -27 -113 -46 -189 -19
-77 -35 -148 -35 -157 0 -60 141 87 155 161 2 8 8 35 15 60 14 52 7 104 -22
171 -23 54 -34 60 -47 27z"/>
<path d="M7068 16974 c-2 -1 -19 -5 -38 -7 -20 -2 -46 -10 -60 -17 -14 -7 -25
-12 -25 -9 0 2 -21 -10 -46 -26 -49 -32 -92 -84 -123 -150 -39 -83 -18 -245
40 -313 43 -52 77 -86 70 -72 -6 13 -5 12 6 0 7 -9 36 -27 63 -40 107 -52 265
-21 358 71 26 26 48 50 48 53 -1 4 5 16 13 29 22 35 39 135 31 191 -7 56 -35
128 -59 152 -9 8 -21 23 -28 32 -14 18 -110 88 -118 86 -3 -1 -14 2 -25 6 -24
9 -102 19 -107 14z"/>
<path d="M6809 6056 c-2 -3 -16 -6 -29 -8 -68 -10 -162 -84 -196 -154 -14 -29
-26 -55 -25 -58 0 -3 -6 -27 -14 -52 -12 -41 -12 -56 2 -118 9 -39 21 -74 26
-78 6 -3 12 -14 13 -24 2 -10 28 -42 59 -70 166 -155 424 -103 522 106 21 44
26 69 25 125 -1 97 -6 120 -38 168 -32 50 -111 127 -130 127 -8 0 -14 5 -14
12 0 6 -3 9 -6 5 -4 -3 -22 0 -41 8 -32 14 -144 21 -154 11z"/>
<path d="M8626 5513 c-16 -2 -40 -12 -53 -20 -12 -8 -23 -11 -23 -7 0 5 -7 0
-16 -11 -8 -11 -16 -18 -17 -15 -6 15 -79 -70 -105 -123 -25 -50 -31 -76 -32
-132 -2 -78 -1 -84 23 -138 32 -74 104 -154 147 -163 3 0 19 -7 35 -14 17 -7
66 -15 110 -17 73 -4 86 -2 145 25 46 20 80 45 113 82 26 28 45 56 42 60 -3 5
-1 11 5 15 25 15 39 140 25 216 -14 76 -94 176 -174 217 -44 23 -161 36 -225
25z"/>
<path d="M2190 5060 l0 -150 -145 0 -145 0 0 -60 0 -60 145 0 144 0 3 -147 3
-148 60 0 60 0 3 148 3 147 144 0 145 0 0 60 0 60 -145 0 -145 0 0 150 0 150
-65 0 -65 0 0 -150z"/>
<path d="M7465 4869 c-14 -4 -25 -5 -25 -2 0 3 -7 0 -15 -7 -8 -7 -15 -10 -15
-6 0 12 -74 -32 -115 -67 -46 -40 -92 -123 -100 -182 -3 -22 -8 -45 -10 -51
-2 -6 1 -33 7 -60 39 -195 223 -315 408 -266 83 22 168 85 197 147 8 17 21 41
28 55 10 16 15 56 15 114 0 83 -2 93 -35 152 -19 34 -55 80 -79 101 -65 57
-189 91 -261 72z"/>
<path d="M9269 4322 c-155 -46 -229 -146 -243 -326 -6 -72 37 -169 100 -227
140 -128 328 -123 465 11 44 43 62 78 79 149 39 167 -50 331 -211 385 -70 24
-128 26 -190 8z"/>
<path d="M6470 4183 c0 -9 111 -216 131 -245 11 -14 19 -29 19 -33 0 -4 10
-19 21 -33 l22 -27 -6 60 c-9 84 -12 95 -38 144 -26 50 -99 126 -129 134 -11
3 -20 3 -20 0z"/>
<path d="M11106 3783 c-79 -18 -157 -77 -203 -153 -25 -42 -45 -132 -42 -191
6 -102 94 -232 177 -260 17 -6 32 -14 32 -19 0 -5 8 -9 18 -9 9 1 41 -4 71 -9
51 -9 76 -8 111 5 8 4 19 5 23 4 4 -1 27 10 51 24 53 31 125 108 149 160 28
59 33 153 11 217 -10 29 -17 56 -16 61 1 4 -3 7 -9 7 -5 0 -7 4 -4 10 3 5 -19
34 -50 64 -90 88 -193 117 -319 89z"/>
<path d="M8139 3686 c-2 -2 -22 -6 -44 -9 -41 -6 -67 -17 -120 -52 -44 -29
-72 -63 -104 -125 -24 -47 -29 -68 -30 -145 -2 -82 0 -94 24 -128 14 -21 20
-35 13 -31 -15 9 12 -23 60 -71 30 -31 103 -80 127 -85 6 -2 16 -5 23 -8 7 -2
48 -3 90 0 63 4 88 10 135 36 94 52 167 142 167 206 0 14 4 27 9 30 10 6 8 61
-4 128 -14 81 -79 167 -165 216 -43 25 -167 51 -181 38z"/>
<path d="M9915 3137 c-22 -6 -42 -14 -45 -17 -3 -3 -25 -18 -50 -32 -25 -14
-52 -34 -62 -44 -28 -32 -78 -140 -84 -183 -9 -64 25 -211 49 -211 6 0 7 -3 4
-7 -4 -4 20 -33 54 -65 34 -32 64 -56 67 -53 3 3 11 0 18 -6 8 -6 40 -17 71
-23 71 -14 165 2 228 39 52 30 114 93 121 123 4 12 9 22 13 22 4 0 8 6 9 13 0
6 6 32 12 57 14 55 5 146 -19 203 -23 53 -96 129 -138 146 -18 8 -33 17 -33
21 0 21 -157 33 -215 17z"/>
<path d="M11768 2596 c-27 -7 -48 -11 -48 -8 0 2 -6 -1 -13 -7 -8 -6 -16 -8
-19 -6 -8 8 -138 -125 -138 -140 0 -4 -6 -13 -14 -20 -26 -26 -31 -210 -8
-250 4 -5 7 -17 9 -25 1 -8 7 -16 12 -18 6 -2 11 -8 11 -13 0 -5 8 -18 18 -30
77 -95 199 -146 301 -127 25 5 52 9 59 10 6 1 12 5 12 10 0 4 3 8 8 7 15 -2
52 14 52 22 0 5 6 9 13 9 33 0 124 130 135 195 10 55 3 153 -13 192 -9 21 -16
39 -16 41 1 1 -7 11 -16 21 -10 10 -27 29 -38 42 -38 44 -61 59 -131 84 -77
28 -107 30 -176 11z"/>
<path d="M8735 2488 c-101 -28 -172 -87 -220 -183 -25 -51 -30 -71 -30 -135 0
-62 5 -85 29 -134 31 -63 95 -135 142 -159 45 -23 137 -39 196 -33 187 18 324
212 281 398 -13 56 -36 101 -70 136 -7 7 -16 19 -20 26 -11 19 -113 78 -143
83 -63 11 -128 11 -165 1z"/>
<path d="M10570 1946 c-85 -23 -127 -52 -199 -141 -38 -47 -63 -206 -40 -260
6 -16 13 -36 15 -44 1 -8 9 -18 16 -22 7 -5 9 -9 5 -9 -5 0 -2 -6 5 -14 7 -8
22 -26 33 -41 45 -63 167 -115 268 -115 52 0 158 48 204 93 35 33 73 88 77
110 1 6 8 38 16 70 11 48 11 66 0 115 -8 31 -15 64 -16 72 -2 8 -8 16 -13 18
-6 2 -11 10 -11 18 0 24 -71 90 -132 123 -32 17 -58 28 -58 24 0 -4 -5 -2 -12
5 -15 15 -98 14 -158 -2z"/>
<path d="M12403 1406 c-23 -8 -45 -11 -48 -8 -3 3 -5 0 -5 -6 0 -7 -7 -12 -16
-12 -20 0 -135 -110 -128 -121 3 -5 1 -9 -5 -9 -5 0 -17 -23 -26 -51 -20 -58
-17 -172 5 -224 8 -16 14 -33 14 -37 1 -8 56 -77 73 -92 30 -27 43 -36 48 -36
3 0 15 -6 28 -14 12 -8 50 -20 84 -27 54 -11 72 -11 134 4 67 16 132 53 167
96 33 41 51 67 52 76 1 6 6 15 10 20 19 23 27 124 15 195 -12 76 -89 179 -164
219 -37 20 -120 41 -161 40 -19 0 -54 -6 -77 -13z"/>
<path d="M22815 1362 c-3 -3 -5 -65 -5 -138 l0 -133 -137 -3 -138 -3 0 -55 0
-55 138 -3 137 -3 0 -139 0 -140 55 0 55 0 0 140 0 140 140 0 140 0 0 60 0 60
-140 0 -139 0 -3 138 -3 137 -47 1 c-26 1 -50 -1 -53 -4z"/>
<path d="M9367 1296 c-26 -8 -58 -21 -70 -29 -46 -30 -102 -92 -124 -136 l-21
-45 61 -40 c34 -21 80 -50 102 -65 47 -30 110 -66 145 -84 14 -6 33 -19 42
-26 10 -8 59 -37 110 -64 106 -55 97 -58 148 45 25 51 28 67 26 140 -2 61 -9
94 -24 124 -31 61 -104 136 -156 162 -58 29 -170 38 -239 18z"/>
<path d="M14258 871 c-15 -5 -29 -7 -31 -4 -8 7 -112 -55 -141 -84 -14 -14
-40 -54 -57 -88 -27 -56 -31 -73 -31 -148 1 -87 4 -96 64 -195 25 -42 125
-110 175 -119 39 -8 118 -9 163 -3 30 4 114 50 151 82 50 44 101 166 101 243
0 42 -40 165 -53 165 -6 0 -8 4 -5 8 7 11 -59 84 -68 75 -3 -3 -6 -2 -6 4 0 6
-22 22 -48 36 -54 28 -167 43 -214 28z"/>
<path d="M11235 762 c-27 -7 -59 -15 -69 -17 -11 -3 -24 -12 -29 -20 -4 -8
-12 -13 -16 -10 -5 2 -28 -17 -52 -44 -62 -70 -69 -78 -62 -85 4 -3 1 -6 -5
-6 -7 0 -12 -11 -12 -24 0 -14 -5 -28 -11 -31 -12 -8 -10 -125 3 -170 5 -16
11 -38 13 -47 7 -32 57 -78 85 -78 14 0 31 -5 37 -11 5 -5 43 -16 84 -24 41
-7 111 -21 157 -31 67 -14 87 -15 106 -5 43 24 93 76 125 134 28 48 33 70 36
130 2 71 0 82 -36 165 -55 125 -225 209 -354 174z"/>
<path d="M13080 227 c-3 -3 -21 -9 -39 -12 -18 -3 -47 -13 -63 -21 -41 -21
-109 -93 -135 -142 -20 -38 -20 -42 -5 -43 9 0 62 -2 117 -4 95 -3 414 11 463
21 22 5 22 5 5 34 -21 36 -93 116 -93 104 0 -5 -5 -2 -10 6 -5 8 -13 15 -17
15 -4 1 -19 7 -33 15 -14 8 -32 16 -40 18 -32 7 -145 14 -150 9z"/>
</g>
</svg>
